<svg xmlns="http://www.w3.org/2000/svg" width="852.219" height="981.106" viewBox="0 0 852.219 981.106">
  <path id="logo_background" data-name="logo background" d="M1111.372,227.791,371.16,286.855c-30.536,2.436-53.366,28.045-51.238,57.471l49.8,688.457c2.043,28.252,26.445,50.165,55.864,50.165h0c21.789,0,39.468,16.975,39.524,37.952l.182,67.332c.046,17.063,20.466,26.6,34.414,16.075l150.1-113.257a40.52,40.52,0,0,1,24.382-8.1h358.9c28.626,0,52.643-20.785,55.682-48.186l82.912-747.522C1175.411,253.6,1146.4,225,1111.372,227.791Z" transform="translate(-319.785 -227.603)" fill="#95be2c"/>
</svg>
