<svg xmlns="http://www.w3.org/2000/svg" width="42.366" height="52.196" viewBox="0 0 42.366 52.196">
  <path id="Path_7093" data-name="Path 7093" d="M354.487,227.611l-32.45,2.69a2.455,2.455,0,0,0-2.246,2.617l2.183,31.351a2.455,2.455,0,0,0,2.449,2.284h0a1.733,1.733,0,0,1,1.733,1.728l.008,5.539a.933.933,0,0,0,1.509.732l6.58-7.631a1.733,1.733,0,0,1,1.069-.369h15.734a2.455,2.455,0,0,0,2.441-2.194l3.635-34.041A2.455,2.455,0,0,0,354.487,227.611Z" transform="translate(-317.283 -225.1)" fill="none" stroke="#fff" stroke-width="5"/>
</svg>
